<svg xmlns="http://www.w3.org/2000/svg" width="48" height="50" viewBox="0 0 48 50">
  <g id="briefcase" transform="translate(-0.392 0.418)">
    <rect id="Rectangle_35" data-name="Rectangle 35" width="48" height="50" transform="translate(0.392 -0.418)" fill="#f68c20" opacity="0"/>
    <path id="Path_24" data-name="Path 24" d="M38.01,11.69H31.655V8.431A5.365,5.365,0,0,0,26.359,3H20a5.365,5.365,0,0,0-5.3,5.431V11.69H8.355A6.438,6.438,0,0,0,2,18.208v17.38a6.438,6.438,0,0,0,6.355,6.518H38.01a6.438,6.438,0,0,0,6.355-6.518V18.208A6.438,6.438,0,0,0,38.01,11.69Zm-8.473,4.345V37.76H16.827V16.035Zm-10.591-7.6A1.073,1.073,0,0,1,20,7.345h6.355a1.073,1.073,0,0,1,1.059,1.086V11.69H18.946ZM6.236,35.588V18.208a2.146,2.146,0,0,1,2.118-2.173h4.236V37.76H8.355A2.146,2.146,0,0,1,6.236,35.588Zm33.891,0A2.146,2.146,0,0,1,38.01,37.76H33.773V16.035H38.01a2.146,2.146,0,0,1,2.118,2.173Z" transform="translate(1.389 2.493)" fill="#f68c20"/>
  </g>
</svg>
