<svg xmlns="http://www.w3.org/2000/svg" width="29" height="30" viewBox="0 0 29 30">
  <g id="briefcase" transform="translate(-0.212 0.354)">
    <rect id="Rectangle_35" data-name="Rectangle 35" width="29" height="30" transform="translate(0.212 -0.354)" fill="#5fd46d" opacity="0"/>
    <path id="Path_24" data-name="Path 24" d="M23.836,8.27H19.982V6.293A3.253,3.253,0,0,0,16.771,3H12.918A3.253,3.253,0,0,0,9.707,6.293V8.27H5.853A3.9,3.9,0,0,0,2,12.222V22.761a3.9,3.9,0,0,0,3.853,3.952H23.836a3.9,3.9,0,0,0,3.853-3.952V12.222A3.9,3.9,0,0,0,23.836,8.27ZM18.7,10.9V24.078H10.991V10.9ZM12.276,6.293a.651.651,0,0,1,.642-.659h3.853a.651.651,0,0,1,.642.659V8.27H12.276ZM4.569,22.761V12.222A1.3,1.3,0,0,1,5.853,10.9H8.422V24.078H5.853A1.3,1.3,0,0,1,4.569,22.761Zm20.551,0a1.3,1.3,0,0,1-1.284,1.317H21.267V10.9h2.569a1.3,1.3,0,0,1,1.284,1.317Z" transform="translate(-0.024 -0.036)" fill="#5fd46d"/>
  </g>
</svg>
