<svg xmlns="http://www.w3.org/2000/svg" width="30" height="30" viewBox="0 0 30 30">
  <g id="camera" transform="translate(-0.032 0.285)">
    <rect id="Rectangle_37" data-name="Rectangle 37" width="30" height="30" transform="translate(0.032 -0.285)" fill="#2db7ef" opacity="0"/>
    <path id="Path_28" data-name="Path 28" d="M23.836,8.27H19.982V6.293A3.253,3.253,0,0,0,16.771,3H12.918A3.253,3.253,0,0,0,9.707,6.293V8.27H5.853A3.9,3.9,0,0,0,2,12.222V22.761a3.9,3.9,0,0,0,3.853,3.952H23.836a3.9,3.9,0,0,0,3.853-3.952V12.222A3.9,3.9,0,0,0,23.836,8.27ZM12.276,6.293a.651.651,0,0,1,.642-.659h3.853a.651.651,0,0,1,.642.659V8.27H12.276ZM25.12,22.761a1.3,1.3,0,0,1-1.284,1.317H5.853a1.3,1.3,0,0,1-1.284-1.317V12.222A1.3,1.3,0,0,1,5.853,10.9H23.836a1.3,1.3,0,0,1,1.284,1.317Z" transform="translate(-0.024 -0.036)" fill="#2db7ef"/>
    <path id="Path_29" data-name="Path 29" d="M11.958,10.5a3.458,3.458,0,1,0,3.458,3.458A3.458,3.458,0,0,0,11.958,10.5Zm0,4.94a1.482,1.482,0,1,1,1.482-1.482,1.482,1.482,0,0,1-1.482,1.482Z" transform="translate(2.862 3.536)" fill="#2db7ef"/>
  </g>
</svg>
