<svg id="cast" xmlns="http://www.w3.org/2000/svg" width="29.641" height="29.641" viewBox="0 0 29.641 29.641">
  <path id="Path_31" data-name="Path 31" d="M29.641,29.641H0V0" fill="#5444a5" opacity="0"/>
  <path id="Path_32" data-name="Path 32" d="M23.287,3H6.425A3.557,3.557,0,0,0,3,6.662V8.27a1.317,1.317,0,1,0,2.635,0V6.662a.949.949,0,0,1,.79-1.028H23.287a.949.949,0,0,1,.79,1.028V23.051a.949.949,0,0,1-.79,1.028H21.443a1.317,1.317,0,0,0,0,2.635h1.844a3.557,3.557,0,0,0,3.425-3.662V6.662A3.557,3.557,0,0,0,23.287,3Z" transform="translate(-0.036 -0.036)" fill="#5444a5"/>
  <path id="Path_33" data-name="Path 33" d="M3.85,14a1,1,0,1,0,.277,1.976,2.46,2.46,0,0,1,2.095.711,2.49,2.49,0,0,1,.5,2.806A.988.988,0,0,0,7.2,20.807a1.047,1.047,0,0,0,.415.089.988.988,0,0,0,.9-.573A4.466,4.466,0,0,0,3.85,14Z" transform="translate(-0.036 5.761)" fill="#5444a5"/>
  <path id="Path_34" data-name="Path 34" d="M3.85,10.079a1,1,0,1,0,.277,1.976,5.963,5.963,0,0,1,6.541,7.568.988.988,0,0,0,.672,1.245.889.889,0,0,0,.277,0,.988.988,0,0,0,.988-.711A7.9,7.9,0,0,0,3.889,10.079Z" transform="translate(-0.036 5.809)" fill="#5444a5"/>
  <circle id="Ellipse_6" data-name="Ellipse 6" cx="0.988" cy="0.988" r="0.988" transform="translate(2.964 22.635)" fill="#5444a5"/>
</svg>
