<svg xmlns="http://www.w3.org/2000/svg" width="30" height="30" viewBox="0 0 30 30">
  <g id="heart" transform="translate(0.378 0.285)">
    <rect id="Rectangle_38" data-name="Rectangle 38" width="30" height="30" transform="translate(-0.378 -0.285)" fill="#ef8543" opacity="0"/>
    <path id="Path_30" data-name="Path 30" d="M14.18,24.706a1.218,1.218,0,0,1-.865-.353L3.852,14.877a6.373,6.373,0,1,1,9.013-9.013L14.18,7.179,15.5,5.863a6.373,6.373,0,1,1,9.013,9.013l-9.464,9.476a1.218,1.218,0,0,1-.865.353ZM8.358,6.436A3.9,3.9,0,0,0,5.581,7.581a3.946,3.946,0,0,0,0,5.566l8.6,8.611,8.6-8.611a3.946,3.946,0,0,0,0-5.566,4.044,4.044,0,0,0-5.554,0l-2.18,2.192a1.218,1.218,0,0,1-1.73,0l-2.18-2.192A3.9,3.9,0,0,0,8.358,6.436Z" transform="translate(0.64 1.077)" fill="#ef8543"/>
  </g>
</svg>
