<svg xmlns="http://www.w3.org/2000/svg" width="30" height="30" viewBox="0 0 30 30">
  <g id="monitor" transform="translate(-0.032 0.354)">
    <rect id="Rectangle_33" data-name="Rectangle 33" width="30" height="30" transform="translate(0.032 -0.354)" fill="#ef8543" opacity="0"/>
    <path id="Path_16" data-name="Path 16" d="M23.836,3H5.853A3.9,3.9,0,0,0,2,6.952V17.491a3.9,3.9,0,0,0,3.853,3.952H13.56v2.635H8.422a1.318,1.318,0,0,0,0,2.635H21.267a1.318,1.318,0,0,0,0-2.635H16.129V21.443h7.707a3.9,3.9,0,0,0,3.853-3.952V6.952A3.9,3.9,0,0,0,23.836,3ZM25.12,17.491a1.3,1.3,0,0,1-1.284,1.317H5.853a1.3,1.3,0,0,1-1.284-1.317V6.952A1.3,1.3,0,0,1,5.853,5.635H23.836A1.3,1.3,0,0,1,25.12,6.952Z" transform="translate(-0.024 -0.036)" fill="#ef8543"/>
  </g>
</svg>
