<svg xmlns="http://www.w3.org/2000/svg" width="29" height="30" viewBox="0 0 29 30">
  <g id="pantone" transform="translate(-0.443 0.354)">
    <rect id="Rectangle_32" data-name="Rectangle 32" width="29" height="30" transform="translate(0.443 -0.354)" fill="#5444a5" opacity="0"/>
    <path id="Path_15" data-name="Path 15" d="M25.4,16.411H20.047l3.03-3.254a1.317,1.317,0,0,0,0-1.858l-5.52-5.085a1.225,1.225,0,0,0-.935-.343,1.317,1.317,0,0,0-.922.408L13.3,8.915v-4.6A1.317,1.317,0,0,0,11.985,3H4.317A1.317,1.317,0,0,0,3,4.317V21.562a5.151,5.151,0,0,0,5.151,5.151H25.4A1.317,1.317,0,0,0,26.713,25.4V17.728A1.317,1.317,0,0,0,25.4,16.411ZM16.727,9.047l3.517,3.28L13.3,19.783V12.722Zm-6.06,3.175v3.952H5.635V12.222Zm0-6.587V9.587H5.635V5.635ZM5.635,21.562V18.809h5.032v2.753a2.516,2.516,0,0,1-5.032,0Zm18.443,2.516H12.894l4.69-5.032h6.495Z" transform="translate(-0.036 -0.036)" fill="#5444a5"/>
  </g>
</svg>
