<svg xmlns="http://www.w3.org/2000/svg" width="30" height="30" viewBox="0 0 30 30">
  <g id="shake" transform="translate(0.378 0.354)">
    <rect id="Rectangle_34" data-name="Rectangle 34" width="30" height="30" transform="translate(-0.378 -0.354)" fill="#18afed" opacity="0"/>
    <path id="Path_17" data-name="Path 17" d="M5.452,17.832a.988.988,0,0,1-.632-.237A8.7,8.7,0,0,1,1.5,10.915,8.7,8.7,0,0,1,4.82,4.236a.988.988,0,1,1,1.265,1.5,6.817,6.817,0,0,0-2.608,5.177,6.817,6.817,0,0,0,2.608,5.177.983.983,0,0,1-.632,1.739Z" transform="translate(-0.018 2.298)" fill="#18afed"/>
    <path id="Path_18" data-name="Path 18" d="M11.988,6.94a4.041,4.041,0,0,1,.988.138V2.988a.988.988,0,1,0-1.976,0v4.09a4.041,4.041,0,0,1,.988-.138Z" transform="translate(2.832 -0.024)" fill="#18afed"/>
    <path id="Path_19" data-name="Path 19" d="M11.988,15A4.041,4.041,0,0,1,11,14.86v5.078a.988.988,0,1,0,1.976,0V14.86a4.041,4.041,0,0,1-.988.138Z" transform="translate(2.832 5.75)" fill="#18afed"/>
    <path id="Path_20" data-name="Path 20" d="M15.987,15.879a.983.983,0,0,1-.632-1.739,4.229,4.229,0,0,0,1.62-3.2,4.229,4.229,0,0,0-1.62-3.2.988.988,0,1,1,1.265-1.5,6.126,6.126,0,0,1,2.332,4.7,6.126,6.126,0,0,1-2.332,4.7A.988.988,0,0,1,15.987,15.879Z" transform="translate(4.261 2.452)" fill="#18afed"/>
    <path id="Path_21" data-name="Path 21" d="M7.964,15.879a.988.988,0,0,1-.632-.237A6.126,6.126,0,0,1,5,10.939a6.126,6.126,0,0,1,2.332-4.7A.988.988,0,1,1,8.6,7.738a4.229,4.229,0,0,0-1.62,3.2,4.229,4.229,0,0,0,1.62,3.2.983.983,0,0,1-.632,1.739Z" transform="translate(1.429 2.452)" fill="#18afed"/>
    <path id="Path_22" data-name="Path 22" d="M18.487,17.832a.983.983,0,0,1-.632-1.739,6.817,6.817,0,0,0,2.608-5.177,6.817,6.817,0,0,0-2.608-5.177.988.988,0,1,1,1.265-1.5,8.7,8.7,0,0,1,3.32,6.679,8.7,8.7,0,0,1-3.32,6.679A.988.988,0,0,1,18.487,17.832Z" transform="translate(5.72 2.298)" fill="#18afed"/>
    <path id="Path_23" data-name="Path 23" d="M11.988,11.976a.988.988,0,1,1,.988-.988A.988.988,0,0,1,11.988,11.976ZM11.988,10.988ZM11.988,10.988ZM11.988,10.988ZM11.988,10.988ZM11.988,10.988ZM11.988,10.988ZM11.988,10.988Z" transform="translate(2.832 2.575)" fill="#18afed"/>
  </g>
</svg>
