<svg xmlns="http://www.w3.org/2000/svg" width="29" height="30" viewBox="0 0 29 30">
  <g id="volume-up" transform="translate(-0.443 0.285)">
    <rect id="Rectangle_36" data-name="Rectangle 36" width="29" height="30" transform="translate(0.443 -0.285)" fill="#5fd46d" opacity="0"/>
    <path id="Path_25" data-name="Path 25" d="M18.259,8.366A.991.991,0,1,0,16.717,9.61a3.952,3.952,0,0,1,0,4.683.991.991,0,0,0,1.541,1.245,5.928,5.928,0,0,0,0-7.173Z" transform="translate(4.461 2.868)" fill="#5fd46d"/>
    <path id="Path_26" data-name="Path 26" d="M19.62,5.325a.8.8,0,0,0-1.393.183,1.857,1.857,0,0,0,.128,1.99,11.388,11.388,0,0,1,2.608,7.382,11.388,11.388,0,0,1-2.608,7.382,1.662,1.662,0,0,0-.353.957,1.847,1.847,0,0,0,.225,1.033.909.909,0,0,0,.761.508.832.832,0,0,0,.632-.325,14.718,14.718,0,0,0,3.32-9.555,14.718,14.718,0,0,0-3.32-9.555Z" transform="translate(5.713 -0.06)" fill="#5fd46d"/>
    <path id="Path_27" data-name="Path 27" d="M14.839,3.162a.78.78,0,0,0-.988,0l-6.4,5.861H2.508c-.546,0-.988.59-.988,1.317v9.035c0,.727.442,1.317.988,1.317h4.94l6.333,5.8a.871.871,0,0,0,.563.224c.546,0,.988-.59.988-1.317V4.322a1.448,1.448,0,0,0-.494-1.159ZM13.386,22.919,8.318,18.283a.823.823,0,0,0-.563-.224H3.476v-6.4H7.754a.823.823,0,0,0,.563-.224l5.039-4.61Z" transform="translate(-0.018 -0.036)" fill="#5fd46d"/>
  </g>
</svg>
